<svg width="327" height="434" viewBox="0 0 327 434" fill="none" xmlns="http://www.w3.org/2000/svg">
<path d="M325.5 12.05V3L326.5 2V404H325.5V12.05Z" fill="black"/>
<path d="M0.5 33H300.5V433H0.500042L0.5 33Z" fill="white" stroke="black"/>
<path d="M0 32.5L25 1H25.5V2L1 32.5H0Z" fill="black"/>
<path d="M300 32.5L325.5 2L326.5 1.00002V2.00002L301 32.5H300Z" fill="black"/>
<path d="M32.872 11H318.202L317.793 11.5H17.5L17.9261 11H32.872Z" fill="black"/>
<path d="M301 432.5L325.5 404H326.5L301 433.5V432.5Z" fill="black"/>
<path d="M25.5 1H326.5L326 1.5L325.5 2H25.5V1Z" fill="black"/>
<path d="M324.5 13.05V4L325 3.5V405L324.5 405.5V13.05Z" fill="black"/>
<path d="M323.5 13.55V4.5L324 4V406L323.5 406.5V13.55Z" fill="black"/>
<path d="M322.5 14.55V5.5L323 5V407.5L322.5 407.609V14.55Z" fill="black"/>
<path d="M321.5 16.55V7.5L322 7V408.5L321.5 409V16.55Z" fill="black"/>
<path d="M320.5 17.55V8.5L321 8V409.5L320.5 410V17.55Z" fill="black"/>
<path d="M319.5 18.55V9.5L320 9V411L319.5 411.5V18.55Z" fill="black"/>
<path d="M318.5 19.55V10.5L319 10V412L318.5 412.5V19.55Z" fill="black"/>
<path d="M317.5 20.55V11.5L318 11V413.135L317.5 413.5V20.55Z" fill="black"/>
<path d="M316.5 22.55V13.5L317 13V414.5H316.5V22.55Z" fill="black"/>
<path d="M315.5 23.55V14.5L316 14V415.5L315.5 416V23.55Z" fill="black"/>
<path d="M314.5 24.55V15.5L315 15V416.5L314.5 417V24.55Z" fill="black"/>
<path d="M313.5 25.55V16.5L314 16V417.5L313.5 418.279V25.55Z" fill="black"/>
<path d="M312.5 27.55V18.5L313 18V419.5H312.5V27.55Z" fill="black"/>
<path d="M311.5 28.55V19.5L312 19V420.5H311.5V28.55Z" fill="black"/>
<path d="M310.5 29.55V20.5L311 20V421.5H310.5V29.55Z" fill="black"/>
<path d="M309.5 30.55V21.5L310 21V422.5H309.5V30.55Z" fill="black"/>
<path d="M308.5 32.55V23L309 22.5V424L308.5 424.5V32.55Z" fill="black"/>
<path d="M307.5 33.55V24.5L308 24V425.111L307.5 425.5V33.55Z" fill="black"/>
<path d="M306.5 34.55V25.5L307 25V426.5H306.5V34.55Z" fill="black"/>
<path d="M305.5 35.55V26.5L306 26V427.5H305.5V35.55Z" fill="black"/>
<path d="M304.5 36.7721V27.7221L305 27.2221V428.722H304.5V36.7721Z" fill="black"/>
<path d="M303.5 37.55V28.5L304 28V429.5L303.5 429.738V37.55Z" fill="black"/>
<path d="M302.5 39.55V30.5L303 30V431L302.5 431.5V39.55Z" fill="black"/>
<path d="M301.5 40.55V31.5L302 31V432L301.5 432.5V40.55Z" fill="black"/>
<path d="M39.872 3H325.036L324.56 3.5H24L24.5 3H39.872Z" fill="black"/>
<path d="M38.8721 4H324L323.648 4.5H23.3744L23.7934 4H38.8721Z" fill="black"/>
<path d="M37.872 5H323L322.648 5.5H22.5L22.9261 5H37.872Z" fill="black"/>
<path d="M36.872 6H322.202L321.793 6.5H21.5L21.9261 6H36.872Z" fill="black"/>
<path d="M36.872 7H322.202L321.793 7.5H20.5L21 7H36.872Z" fill="black"/>
<path d="M32.872 12H318.202L317.793 12.5H16.7102L17 12H32.872Z" fill="black"/>
<path d="M31.8721 13H317.202L316.793 13.5H15.5L16.0001 13H31.8721Z" fill="black"/>
<path d="M29.872 15H315.202L314.793 15.5H14L14.5 15H29.872Z" fill="black"/>
<path d="M28.872 16H314.202L313.793 16.5H13L13.5 16H28.872Z" fill="black"/>
<path d="M27.872 17H313.202L312.793 17.5H12.5L12.9261 17H27.872Z" fill="black"/>
<path d="M26.872 18H312.202L311.793 18.5H11.5L11.9261 18H26.872Z" fill="black"/>
<path d="M26.8719 19H312.202L311.793 19.5H10.5L10.9999 19H26.8719Z" fill="black"/>
<path d="M25.8721 20H311.202L310.793 20.5H10.0001L10.5 20H25.8721Z" fill="black"/>
<path d="M24.872 21H310.202L309.793 21.5H9L9.50002 21H24.872Z" fill="black"/>
<path d="M23.872 22H309.202L308.793 22.5H8L8.5 22H23.872Z" fill="black"/>
<path d="M22.872 23H308.345L308 23.5H7.5L7.92615 23H22.872Z" fill="black"/>
<path d="M21.872 24H307.679L307.269 24.5H6.5L6.92615 24H21.872Z" fill="black"/>
<path d="M21.8719 25H307.202L306.793 25.5H5.72354L6.5 25H21.8719Z" fill="black"/>
<path d="M20.8721 26H306.202L305.793 26.5H5.00016L5.5 26H20.8721Z" fill="black"/>
<path d="M19.872 27H305.202L304.793 27.5H4.5L4.92615 27H19.872Z" fill="black"/>
<path d="M18.8719 28H304.202L303.793 28.5H3.49993L4 28H18.8719Z" fill="black"/>
<path d="M17.872 29H303.5L303 29.5H2.5L2.92615 29H17.872Z" fill="black"/>
<path d="M17.8722 30H303L302.5 30.5H1.88855L2.5 30H17.8722Z" fill="black"/>
<path d="M16.8722 31H302.202L301.793 31.5H0.856079L1.5001 31H16.8722Z" fill="black"/>
<path d="M40.8721 2H326.202L325.793 2.5H25L25.5 2H40.8721Z" fill="black"/>
<path d="M19.872 27H305.202L304.793 27.5H4L4.49996 27H19.872Z" fill="black"/>
<path d="M30.872 14H316.202L315.793 14.5H14.6968L15 14H30.872Z" fill="black"/>
<path d="M33.8721 10H319.202L318.793 10.5H18L18.5 10H33.8721Z" fill="black"/>
<path d="M34.872 9H320.202L319.793 9.5H19L19.5 9H34.872Z" fill="black"/>
<path d="M35.872 8H321.202L320.793 8.5H19.5L20 8H35.872Z" fill="black"/>
</svg>
