<?xml version="1.0" standalone="no"?>
<!DOCTYPE svg PUBLIC "-//W3C//DTD SVG 20010904//EN"
 "http://www.w3.org/TR/2001/REC-SVG-20010904/DTD/svg10.dtd">
<svg version="1.0" xmlns="http://www.w3.org/2000/svg"
 width="320.000000pt" height="320.000000pt" viewBox="0 0 320.000000 320.000000"
 preserveAspectRatio="xMidYMid meet">

<g transform="translate(0.000000,320.000000) scale(0.100000,-0.100000)"
fill="#000000" stroke="none">
<path d="M0 1600 l0 -1600 1600 0 1600 0 0 1600 0 1600 -1600 0 -1600 0 0
-1600z m1794 1192 c168 -61 308 -201 366 -365 31 -86 38 -249 16 -337 -28
-110 -73 -187 -161 -275 -121 -121 -249 -175 -415 -175 -165 0 -302 58 -420
179 -117 119 -170 247 -170 411 0 170 52 293 174 416 86 85 159 130 266 159
81 22 266 15 344 -13z m-628 -1097 c119 -97 286 -155 442 -155 142 0 313 62
427 156 l57 46 61 -11 c277 -49 430 -342 431 -826 0 -133 -2 -156 -22 -207
-31 -77 -80 -146 -131 -185 -84 -65 -73 -64 -852 -61 -698 3 -704 3 -751 25
-103 47 -184 166 -209 306 -16 86 1 333 30 468 62 278 192 441 383 478 71 14
77 13 134 -34z"/>
</g>
</svg>
