<svg width="208" height="203" viewBox="0 0 208 203" fill="none" xmlns="http://www.w3.org/2000/svg">
<path d="M196 100.5C196 150.482 155.482 191 105.5 191C55.5182 191 15 150.482 15 100.5C15 50.5182 55.5182 10 105.5 10C155.482 10 196 50.5182 196 100.5Z" fill="white" stroke="black" stroke-width="1.5" stroke-linejoin="round"/>
<path d="M58.3141 131.179C56.3997 131.326 54.6401 131.15 53.035 130.651C51.4548 130.127 50.087 129.335 48.9315 128.275C47.8008 127.19 46.9282 125.893 46.3137 124.386C45.6992 122.878 45.4253 121.189 45.492 119.318C45.5586 117.447 45.9547 115.707 46.6803 114.096C47.4059 112.486 48.3874 111.059 49.6249 109.816C50.8632 108.549 52.2952 107.542 53.9207 106.796C55.571 106.023 57.3533 105.564 59.2677 105.417C61.206 105.268 62.9768 105.467 64.5801 106.014C66.2082 106.535 67.5735 107.399 68.676 108.606L66.2621 111.052C65.3408 110.118 64.2904 109.457 63.111 109.069C61.9325 108.657 60.6612 108.503 59.2972 108.608C57.8854 108.716 56.5607 109.057 55.3232 109.63C54.1096 110.202 53.0447 110.953 52.1286 111.885C51.2124 112.816 50.4817 113.9 49.9364 115.138C49.416 116.35 49.131 117.652 49.0814 119.043C49.0319 120.434 49.225 121.711 49.6609 122.873C50.1215 124.01 50.7792 124.976 51.6338 125.772C52.4885 126.567 53.5055 127.159 54.6849 127.547C55.8882 127.933 57.1958 128.072 58.6077 127.964C59.9717 127.859 61.2605 127.521 62.474 126.95C63.6885 126.354 64.7926 125.504 65.7866 124.399L68.039 126.487C66.8442 127.87 65.4093 128.961 63.7342 129.759C62.0831 130.556 60.2764 131.029 58.3141 131.179Z" fill="#999292"/>
<path d="M56.6253 93.5295C54.7056 93.565 52.9355 93.2746 51.3149 92.6582C49.7183 92.0414 48.3513 91.1689 47.2139 90.0408C46.0778 88.8887 45.216 87.5401 44.6286 85.9948C44.0413 84.4495 43.7976 82.7543 43.8977 80.909C43.9978 79.0637 44.4261 77.356 45.1825 75.7858C45.9388 74.2157 46.9481 72.8443 48.2103 71.6718C49.4738 70.4753 50.939 69.5385 52.6058 68.8612C54.2726 68.1839 56.0779 67.8273 58.0215 67.7913C59.9412 67.7558 61.6873 68.0467 63.26 68.6639C64.8579 69.2568 66.2249 70.1293 67.361 71.2813C68.5224 72.409 69.3848 73.7457 69.9482 75.2914C70.5355 76.8367 70.7785 78.5439 70.6771 80.4132C70.5757 82.2824 70.1468 84.0021 69.3905 85.5723C68.6581 87.142 67.6481 88.5253 66.3606 89.7222C65.0984 90.8948 63.6339 91.8196 61.9671 92.4969C60.3256 93.1498 58.545 93.4939 56.6253 93.5295ZM56.7989 90.3302C58.1906 90.3044 59.4874 90.041 60.6892 89.5399C61.915 89.0384 62.9832 88.3483 63.8939 87.4696C64.8298 86.5665 65.5696 85.5233 66.1132 84.3402C66.6808 83.1565 67.0023 81.8698 67.0777 80.4798C67.1532 79.0899 66.9707 77.8124 66.5305 76.6475C66.1143 75.4821 65.4857 74.4762 64.6446 73.6299C63.8289 72.7592 62.8341 72.0953 61.6603 71.6383C60.5105 71.1807 59.2397 70.9649 57.848 70.9906C56.4322 71.0168 55.1114 71.2807 53.8856 71.7822C52.6838 72.2833 51.615 72.9854 50.679 73.8885C49.7444 74.7677 48.9932 75.7991 48.4256 76.9827C47.882 78.1658 47.5725 79.4524 47.4971 80.8423C47.4217 82.2323 47.5921 83.51 48.0083 84.6754C48.4485 85.8403 49.0885 86.8579 49.9283 87.7282C50.7693 88.5745 51.7647 89.2264 52.9145 89.6839C54.0883 90.141 55.3831 90.3564 56.7989 90.3302Z" fill="black"/>
<g filter="url(#filter0_d_1_22)">
<path d="M103.921 92.9908C101.333 93.087 99.2752 92.4306 97.7491 91.0216C96.2228 89.6126 95.4174 87.4997 95.3327 84.6828L95 73.619L97.8142 73.5145L98.1436 84.467C98.2088 86.6353 98.7349 88.202 99.7218 89.1672C100.727 90.1317 102.112 90.5811 103.875 90.5156C105.658 90.4494 107.012 89.8982 107.939 88.8619C108.885 87.8249 109.325 86.2222 109.26 84.054L108.93 73.1014L111.66 73L111.993 84.0637C112.077 86.8806 111.401 89.0486 109.963 90.5678C108.543 92.0862 106.53 92.8938 103.921 92.9908Z" fill="black"/>
</g>
<path d="M95.8592 131.079L95.0813 105.891L104.906 106.14C107.113 106.196 109.008 106.592 110.589 107.327C112.17 108.062 113.4 109.1 114.281 110.441C115.161 111.781 115.63 113.363 115.686 115.186C115.742 117.009 115.371 118.57 114.572 119.868C113.772 121.142 112.603 122.107 111.065 122.764C109.527 123.42 107.655 123.72 105.447 123.664L97.6018 123.465L99.1702 121.851L99.458 131.17L95.8592 131.079ZM112.702 131.506L106.014 122.204L109.864 122.302L116.624 131.605L112.702 131.506ZM99.1813 122.211L97.5074 120.406L105.245 120.603C107.548 120.661 109.272 120.213 110.418 119.26C111.586 118.282 112.143 116.894 112.087 115.095C112.032 113.296 111.389 111.889 110.159 110.876C108.953 109.862 107.198 109.326 104.895 109.268L97.1573 109.072L98.7213 107.314L99.1813 122.211Z" fill="black"/>
<path d="M152.86 130.802C150.942 130.706 149.094 130.326 147.316 129.663C145.536 128.976 144.12 128.14 143.067 127.155L144.258 124.417C145.258 125.304 146.515 126.06 148.029 126.686C149.542 127.312 151.102 127.666 152.708 127.746C154.17 127.82 155.348 127.711 156.243 127.422C157.137 127.132 157.785 126.71 158.188 126.156C158.59 125.579 158.772 124.918 158.735 124.175C158.693 123.312 158.37 122.603 157.769 122.047C157.191 121.492 156.44 121.035 155.513 120.678C154.61 120.298 153.613 119.961 152.522 119.667C151.432 119.373 150.327 119.043 149.209 118.676C148.114 118.286 147.098 117.817 146.162 117.267C145.251 116.72 144.498 116.012 143.905 115.146C143.311 114.255 142.981 113.139 142.914 111.796C142.85 110.502 143.126 109.332 143.744 108.287C144.384 107.219 145.396 106.397 146.778 105.821C148.183 105.222 149.988 104.978 152.193 105.089C153.655 105.162 155.115 105.427 156.572 105.883C158.029 106.338 159.303 106.952 160.393 107.724L159.35 110.541C158.235 109.768 157.071 109.195 155.857 108.824C154.642 108.428 153.471 108.202 152.345 108.145C150.93 108.074 149.777 108.196 148.884 108.509C147.991 108.823 147.343 109.269 146.942 109.846C146.564 110.425 146.394 111.086 146.43 111.829C146.474 112.716 146.785 113.437 147.363 113.992C147.964 114.548 148.716 115.005 149.618 115.361C150.545 115.718 151.554 116.056 152.646 116.374C153.736 116.667 154.828 116.997 155.923 117.363C157.041 117.73 158.056 118.187 158.967 118.735C159.903 119.284 160.668 119.992 161.261 120.859C161.854 121.726 162.183 122.818 162.248 124.137C162.311 125.407 162.023 126.576 161.382 127.644C160.741 128.688 159.706 129.508 158.277 130.106C156.871 130.681 155.065 130.913 152.86 130.802Z" fill="black"/>
<path d="M80 38V166" stroke="black" stroke-width="1.5"/>
<path d="M129 38L128 166" stroke="black" stroke-width="1.5"/>
<path d="M44 100H164" stroke="black" stroke-width="1.5"/>
<path d="M143.546 92.2077L142.268 67.0401L152.074 67.6972C154.277 67.8449 156.175 68.3184 157.767 69.1178C159.358 69.9172 160.607 71.0041 161.512 72.3786C162.417 73.7531 162.916 75.3511 163.008 77.1728C163.1 78.9944 162.761 80.5363 161.99 81.7985C161.217 83.0366 160.071 83.9511 158.549 84.5419C157.028 85.1327 155.166 85.3543 152.963 85.2067L145.133 84.682L146.665 83.1364L147.138 92.4484L143.546 92.2077ZM160.356 93.3342L153.499 83.7735L157.342 84.0311L164.271 93.5966L160.356 93.3342ZM146.683 83.496L144.977 81.6259L152.7 82.1434C154.999 82.2975 156.71 81.9224 157.834 81.0183C158.98 80.0918 159.507 78.7298 159.416 76.9321C159.325 75.1344 158.656 73.7041 157.408 72.6411C156.185 71.5797 154.424 70.972 152.125 70.818L144.403 70.3005L145.928 68.6111L146.683 83.496Z" fill="black"/>
<path d="M56.8977 120.503V115.815H57.6932V120.503H56.8977ZM54.9517 118.557V117.761H59.6392V118.557H54.9517ZM63.4895 120.503V115.815H64.285V120.503H63.4895ZM61.5435 118.557V117.761H66.231V118.557H61.5435Z" fill="#999292"/>
<path d="M77.8125 90.625C77.8125 91.6094 77.6836 92.5156 77.4258 93.3437C77.1706 94.1693 76.8047 94.9297 76.3281 95.625H75.5156C75.7031 95.3672 75.8776 95.0495 76.0391 94.6719C76.2031 94.2969 76.3464 93.8854 76.4688 93.4375C76.5911 92.987 76.6862 92.5221 76.7539 92.043C76.8242 91.5612 76.8594 91.0885 76.8594 90.625C76.8594 90.0052 76.7995 89.3763 76.6797 88.7383C76.5599 88.1003 76.3984 87.5078 76.1953 86.9609C75.9922 86.4141 75.7656 85.9687 75.5156 85.625H76.3281C76.8047 86.3203 77.1706 87.082 77.4258 87.9102C77.6836 88.7357 77.8125 89.6406 77.8125 90.625Z" fill="#999292"/>
<path d="M69.1719 90.625C69.1719 89.6406 69.2995 88.7357 69.5547 87.9102C69.8125 87.082 70.1797 86.3203 70.6563 85.625H71.4687C71.2813 85.8828 71.1055 86.2005 70.9414 86.5781C70.7799 86.9531 70.638 87.3659 70.5156 87.8164C70.3932 88.2643 70.2969 88.7279 70.2266 89.207C70.1589 89.6862 70.125 90.1589 70.125 90.625C70.125 91.2448 70.1849 91.8737 70.3047 92.5117C70.4245 93.1497 70.5859 93.7422 70.7891 94.2891C70.9922 94.8359 71.2187 95.2813 71.4687 95.625H70.6563C70.1797 94.9297 69.8125 94.1693 69.5547 93.3437C69.2995 92.5156 69.1719 91.6094 69.1719 90.625Z" fill="#999292"/>
<path d="M73.7614 86.7273V94H72.8807V86.7273H73.7614Z" fill="#999292"/>
<path d="M136.497 118.091H137.818V125.889C137.818 126.585 137.69 127.176 137.435 127.663C137.179 128.15 136.819 128.519 136.353 128.771C135.888 129.023 135.339 129.149 134.707 129.149C134.111 129.149 133.58 129.041 133.115 128.824C132.65 128.604 132.284 128.292 132.017 127.887C131.751 127.482 131.618 127.001 131.618 126.443H132.918C132.918 126.752 132.994 127.022 133.147 127.253C133.303 127.48 133.516 127.658 133.786 127.786C134.056 127.913 134.363 127.977 134.707 127.977C135.087 127.977 135.411 127.897 135.677 127.738C135.943 127.578 136.146 127.343 136.284 127.034C136.426 126.722 136.497 126.34 136.497 125.889V118.091Z" fill="black"/>
<path d="M100.256 50.7273H101.264L103.281 54.1222H103.366L105.384 50.7273H106.392L103.764 55.0028V58H102.884V55.0028L100.256 50.7273ZM100.881 70V62.7273H103.423C103.93 62.7273 104.348 62.8149 104.677 62.9901C105.006 63.1629 105.251 63.3961 105.412 63.6896C105.573 63.9808 105.653 64.304 105.653 64.6591C105.653 64.9716 105.598 65.2296 105.487 65.4332C105.378 65.6368 105.233 65.7978 105.053 65.9162C104.876 66.0346 104.683 66.1222 104.474 66.179V66.25C104.697 66.2642 104.921 66.3423 105.146 66.4844C105.371 66.6264 105.559 66.83 105.71 67.0952C105.862 67.3603 105.938 67.6847 105.938 68.0682C105.938 68.4328 105.855 68.7607 105.689 69.0518C105.523 69.343 105.262 69.5739 104.904 69.7443C104.547 69.9148 104.081 70 103.509 70H100.881ZM101.761 69.2188H103.509C104.084 69.2188 104.492 69.1075 104.734 68.8849C104.978 68.66 105.099 68.3878 105.099 68.0682C105.099 67.822 105.037 67.5947 104.911 67.3864C104.786 67.1757 104.607 67.0076 104.375 66.8821C104.143 66.7543 103.868 66.6903 103.551 66.6903H101.761V69.2188ZM101.761 65.9233H103.395C103.66 65.9233 103.899 65.8712 104.112 65.767C104.328 65.6629 104.498 65.5161 104.624 65.3267C104.751 65.1373 104.815 64.9148 104.815 64.6591C104.815 64.3395 104.704 64.0684 104.482 63.8459C104.259 63.621 103.906 63.5085 103.423 63.5085H101.761V65.9233Z" fill="#999292"/>
<path d="M134.179 142H133.256L135.926 134.727H136.835L139.506 142H138.582L136.409 135.878H136.352L134.179 142ZM134.52 139.159H138.241V139.94H134.52V139.159ZM134.179 146.727L136.338 152.849H136.423L138.582 146.727H139.506L136.835 154H135.926L133.256 146.727H134.179ZM134.179 166H133.256L135.926 158.727H136.835L139.506 166H138.582L136.409 159.878H136.352L134.179 166ZM134.52 163.159H138.241V163.94H134.52V163.159Z" fill="#999292"/>
<path d="M146.483 33.5085V32.7273H151.938V33.5085H149.651V40H148.77V33.5085H146.483ZM146.881 52V44.7273H149.338C149.909 44.7273 150.375 44.8303 150.737 45.0362C151.102 45.2398 151.372 45.5156 151.547 45.8636C151.722 46.2116 151.81 46.5999 151.81 47.0284C151.81 47.4569 151.722 47.8464 151.547 48.1967C151.374 48.5471 151.107 48.8265 150.744 49.0348C150.382 49.2408 149.918 49.3438 149.352 49.3438H147.591V48.5625H149.324C149.714 48.5625 150.028 48.495 150.265 48.3601C150.502 48.2251 150.673 48.0429 150.78 47.8132C150.889 47.5812 150.943 47.3196 150.943 47.0284C150.943 46.7372 150.889 46.4768 150.78 46.2472C150.673 46.0175 150.5 45.8376 150.261 45.7074C150.022 45.5748 149.705 45.5085 149.31 45.5085H147.761V52H146.881ZM147.761 56.7273V64H146.881V56.7273H147.761Z" fill="#999292"/>
<path d="M170.733 99H169.852C169.8 98.7467 169.709 98.5241 169.579 98.3324C169.451 98.1406 169.295 97.9796 169.11 97.8494C168.928 97.7169 168.725 97.6174 168.503 97.5511C168.28 97.4848 168.048 97.4517 167.807 97.4517C167.366 97.4517 166.968 97.563 166.61 97.7855C166.255 98.008 165.972 98.3359 165.761 98.7692C165.553 99.2024 165.449 99.7339 165.449 100.364C165.449 100.993 165.553 101.525 165.761 101.958C165.972 102.391 166.255 102.719 166.61 102.942C166.968 103.164 167.366 103.276 167.807 103.276C168.048 103.276 168.28 103.242 168.503 103.176C168.725 103.11 168.928 103.012 169.11 102.881C169.295 102.749 169.451 102.587 169.579 102.395C169.709 102.201 169.8 101.978 169.852 101.727H170.733C170.667 102.099 170.546 102.432 170.371 102.725C170.196 103.019 169.978 103.268 169.717 103.474C169.457 103.678 169.165 103.833 168.84 103.94C168.518 104.046 168.174 104.099 167.807 104.099C167.187 104.099 166.635 103.948 166.152 103.645C165.669 103.342 165.289 102.911 165.012 102.352C164.735 101.794 164.597 101.131 164.597 100.364C164.597 99.5966 164.735 98.9337 165.012 98.375C165.289 97.8163 165.669 97.3854 166.152 97.0824C166.635 96.7794 167.187 96.6278 167.807 96.6278C168.174 96.6278 168.518 96.6811 168.84 96.7876C169.165 96.8942 169.457 97.0504 169.717 97.2564C169.978 97.46 170.196 97.7086 170.371 98.0021C170.546 98.2933 170.667 98.6259 170.733 99Z" fill="#999292"/>
<defs>
<filter id="filter0_d_1_22" x="91" y="73" width="25" height="28" filterUnits="userSpaceOnUse" color-interpolation-filters="sRGB">
<feFlood flood-opacity="0" result="BackgroundImageFix"/>
<feColorMatrix in="SourceAlpha" type="matrix" values="0 0 0 0 0 0 0 0 0 0 0 0 0 0 0 0 0 0 127 0" result="hardAlpha"/>
<feOffset dy="4"/>
<feGaussianBlur stdDeviation="2"/>
<feComposite in2="hardAlpha" operator="out"/>
<feColorMatrix type="matrix" values="0 0 0 0 0 0 0 0 0 0 0 0 0 0 0 0 0 0 0.25 0"/>
<feBlend mode="normal" in2="BackgroundImageFix" result="effect1_dropShadow_1_22"/>
<feBlend mode="normal" in="SourceGraphic" in2="effect1_dropShadow_1_22" result="shape"/>
</filter>
</defs>
</svg>
