<?xml version="1.0" standalone="no"?>
<!DOCTYPE svg PUBLIC "-//W3C//DTD SVG 20010904//EN"
 "http://www.w3.org/TR/2001/REC-SVG-20010904/DTD/svg10.dtd">
<svg version="1.0" xmlns="http://www.w3.org/2000/svg"
 width="269.000000pt" height="188.000000pt" viewBox="0 0 269.000000 188.000000"
 preserveAspectRatio="xMidYMid meet">

<g transform="translate(0.000000,188.000000) scale(0.100000,-0.100000)"
fill="#000000" stroke="none">
<path d="M2135 1730 c-38 -16 -279 -110 -535 -209 -1053 -406 -1176 -454
-1187 -463 -19 -15 -16 -52 4 -70 10 -9 115 -52 233 -96 l215 -80 13 -38 c8
-22 47 -147 88 -279 72 -231 87 -265 122 -265 8 0 69 44 134 98 152 124 168
134 197 127 13 -3 122 -78 242 -165 120 -87 226 -163 236 -168 30 -16 61 3 72
45 6 21 45 202 86 403 109 525 133 639 164 790 73 347 76 367 62 384 -19 23
-66 18 -146 -14z m-255 -318 c0 -11 -81 -88 -438 -420 -155 -145 -288 -276
-296 -290 -7 -15 -19 -73 -26 -130 -9 -71 -17 -105 -27 -109 -7 -3 -16 -3 -19
0 -10 9 -103 340 -104 364 0 12 10 34 23 48 23 27 853 544 875 545 6 0 12 -4
12 -8z"/>
</g>
</svg>
